<svg width="11" height="11" viewBox="0 0 11 11" fill="none" xmlns="http://www.w3.org/2000/svg">
<path d="M10.8216 9.69189L6.54054 5.4108L10.8216 1.12975C11.0594 0.891913 11.0594 0.416216 10.8216 0.178378C10.5837 -0.0594594 10.1082 -0.0594594 9.87032 0.178378L5.58927 4.45946L1.30808 0.178378C1.07024 -0.0594594 0.594681 -0.0594594 0.237925 0.178378C0.119006 0.297297 0 0.416209 0 0.654046C0 0.891884 0.119006 1.0108 0.237925 1.24864L4.51897 5.52973L0.237925 9.81081C8.70952e-05 10.0486 8.70952e-05 10.5243 0.237925 10.7621C0.356844 10.8811 0.475646 11 0.713484 11C0.951322 11 1.07027 10.8811 1.18919 10.7621L5.47024 6.4811L9.75143 10.7621C9.87035 10.8811 10.1081 11 10.227 11C10.4648 11 10.5838 10.8811 10.7027 10.7621C11.0595 10.2865 11.0594 9.92972 10.8216 9.69189Z" fill="#1C3643"/>
</svg>
