<svg width="14" height="18" viewBox="0 0 14 18" fill="none" xmlns="http://www.w3.org/2000/svg">
<path d="M13.2 5.39989C12.5 1.99989 9.30002 -0.200112 5.80002 0.199888C2.60002 0.599888 0.100042 3.49989 0.200042 6.99989C0.200042 7.79989 0.400017 8.79989 0.800017 9.79989C2.00002 12.7999 4.00004 15.1999 6.20004 17.2999C6.50004 17.5999 6.90004 17.5999 7.20004 17.2999C7.50004 16.9999 7.8 16.6999 8.10001 16.3999C9.90001 14.4999 11.4 12.4999 12.5 10.0999C13.2 8.49989 13.6 6.99989 13.2 5.39989ZM6.80002 9.79989C5.10002 9.79989 3.70004 8.39989 3.70004 6.69989C3.70004 4.99989 5.10002 3.59989 6.80002 3.59989C8.50002 3.59989 9.90005 4.99989 9.90005 6.69989C9.90005 8.39989 8.50002 9.79989 6.80002 9.79989Z" fill="#709DA0"/>
</svg>
