<svg width="204" height="96" viewBox="0 0 204 96" fill="none" xmlns="http://www.w3.org/2000/svg">
<path d="M85.5797 45.0373L129.033 94H202.113L122.899 2L113.336 9.69266L176.956 84.5401H135.894L88.2825 29.4441L34.226 72.4814L2 74.1446L7.09379 81.4215L22.687 81.1096L7.09379 93.7921H24.8701L40.6712 80.278L52.8339 79.8621L35.6814 93.7921H51.8983L69.1548 79.3424L88.4904 78.6147L100.965 93.7921H115.727L102.212 77.991L102.836 68.8429L94.7277 69.2588L83.0847 55.4328L63.9571 70.922L51.1706 71.5458L85.5797 45.0373ZM80.9017 69.4667L81.3175 69.9864L80.278 70.0904L80.9017 69.4667Z" stroke="#FCFCFE" stroke-width="2.0811" stroke-miterlimit="10" stroke-linecap="round" stroke-linejoin="round"/>
<path d="M160.115 77.0553L107.098 14.3706L97.1187 22.583L142.859 77.2633L160.115 77.0553Z" stroke="#FCFCFE" stroke-width="2.0811" stroke-miterlimit="10" stroke-linecap="round" stroke-linejoin="round"/>
</svg>
