<svg width="33" height="31" viewBox="0 0 33 31" fill="none" xmlns="http://www.w3.org/2000/svg">
<path d="M23.8 6.59989L14.8 10.7999L7.59998 14.1999C7.29998 14.2999 7.19995 14.5999 7.19995 14.8999C7.19995 15.1999 7.29998 15.4999 7.59998 15.5999L11.4 17.2999L12.5 23.8999C12.5 24.2999 13.1 24.4999 13.3 23.9999L16.4 19.1999L22.3 21.9999C22.7 22.2999 23.3 21.8999 23.4 21.2999L24.2 6.89989C24.3 6.69989 24 6.39989 23.8 6.59989ZM8.30005 14.7999L20.7 8.99989L18 11.2999L11.7 16.3999L8.30005 14.7999ZM13 21.3999L12.3 16.9999L19.8 10.8999L14.2 17.1999L14.1 17.2999L13 21.3999ZM14 21.1999L14.7 18.1999L15.7 18.5999L14 21.1999ZM16.1 17.9999L15.1 17.5999L20 12.0999L19.3 13.1999L16.1 17.9999ZM22.6 21.0999L17 18.3999L23.3 8.69989L22.6 21.0999Z" fill="#709DA0"/>
<path d="M16.6 1.4C24.8 1.4 31.4 7.7 31.4 15.5C31.4 23.3 24.8 29.6 16.6 29.6C8.39998 29.6 1.80005 23.3 1.80005 15.5C1.80005 7.7 8.39998 1.4 16.6 1.4ZM16.6 0C7.69998 0 0.400024 6.9 0.400024 15.5C0.400024 24.1 7.69998 31 16.6 31C25.5 31 32.8 24.1 32.8 15.5C32.9 6.9 25.6 0 16.6 0Z" fill="#709DA0"/>
</svg>
