<svg width="18" height="18" viewBox="0 0 18 18" fill="none" xmlns="http://www.w3.org/2000/svg">
<path d="M8.69995 0.300049C3.99995 0.300049 0.0999756 4.00005 0.0999756 8.70005C0.0999756 13.4001 3.8 17.2 8.5 17.3C13.2 17.3 17.1 13.6 17.1 8.80005C17.2 4.20005 13.4 0.300049 8.69995 0.300049ZM8.59998 15.8C4.79998 15.8 1.69995 12.7 1.69995 8.80005C1.69995 4.90005 4.79995 1.80005 8.69995 1.80005C12.5 1.80005 15.6 4.90005 15.6 8.70005C15.6 12.6 12.5 15.8 8.59998 15.8Z" fill="#709DA0"/>
<path d="M7.90002 6.50015C7.90002 5.80015 7.90002 5.10015 7.90002 4.40015C7.90002 3.80015 8.19995 3.40015 8.69995 3.40015C9.19995 3.40015 9.5 3.80015 9.5 4.40015C9.5 5.70015 9.5 6.90015 9.5 8.20015C9.5 8.40015 9.59995 8.60015 9.69995 8.70015C10.3 9.30015 10.9 9.90015 11.5 10.5001C11.9 10.9001 11.9 11.4001 11.6 11.7001C11.3 12.0001 10.8 12.0001 10.4 11.6001C9.70002 10.9001 9.00005 10.2001 8.30005 9.50015C8.10005 9.30015 8 9.00015 8 8.70015C7.9 7.90015 7.90002 7.20015 7.90002 6.50015Z" fill="#709DA0"/>
</svg>
