<svg width="33" height="31" viewBox="0 0 33 31" fill="none" xmlns="http://www.w3.org/2000/svg">
<path d="M16.5 1.4C24.7 1.4 31.3 7.7 31.3 15.5C31.3 23.3 24.7 29.6 16.5 29.6C8.3 29.6 1.69995 23.3 1.69995 15.5C1.69995 7.7 8.3 1.4 16.5 1.4ZM16.5 0C7.6 0 0.300049 6.9 0.300049 15.5C0.300049 24.1 7.6 31 16.5 31C25.4 31 32.7 24.1 32.7 15.5C32.7999 6.9 25.5 0 16.5 0Z" fill="#709DA0"/>
<path d="M17.3 20.8001C11.4 20.8001 8.10002 16.8001 7.90002 10.1001H10.8C10.9 15.0001 13.1 17.1001 14.8 17.5001V10.1001H17.6V14.3001C19.3 14.1001 21.1 12.2001 21.7 10.1001H24.5C24 12.7001 22.1 14.7001 20.7 15.5001C22.1 16.1001 24.3 17.8001 25.1 20.9001H22C21.3 18.9001 19.7 17.3001 17.5 17.1001V20.9001H17.3V20.8001Z" fill="#709DA0"/>
</svg>
